<svg xmlns="http://www.w3.org/2000/svg" width="64" height="64" viewBox="0 0 64 64">
  <defs>
    <linearGradient id="g" x1="0" y1="0" x2="1" y2="1">
      <stop offset="0" stop-color="#0ea5e9"/>
      <stop offset="1" stop-color="#0284c7"/>
    </linearGradient>
  </defs>

  <!-- Outer shield -->
  <path d="M32 4 L54 12 V30 C54 45 44 56 32 60 C20 56 10 45 10 30 V12 Z"
        fill="url(#g)" opacity="0.95"/>

  <!-- Face plate -->
  <path d="M32 14 L44 20 V30 C44 38 39 44 32 48 C25 44 20 38 20 30 V20 Z"
        fill="#ffffff" opacity="0.92"/>

  <!-- V-fin -->
  <path d="M20 16 L12 10 L14 8 L24 14 Z" fill="#fbbf24"/>
  <path d="M44 16 L52 10 L50 8 L40 14 Z" fill="#fbbf24"/>

  <!-- Eyes -->
  <rect x="24" y="28" width="6" height="3" rx="1" fill="#ef4444"/>
  <rect x="34" y="28" width="6" height="3" rx="1" fill="#ef4444"/>

  <!-- Center line -->
  <path d="M32 22 V44" stroke="#0f172a" stroke-opacity="0.25" stroke-width="2"/>
</svg>
